<svg width="100%" height="100%" xmlns="http://www.w3.org/2000/svg" viewBox="0 0 512 512">
	<rect fill="#FFFFFF" fill-opacity="0.2" width="100%" height="100%"/>
	<path fill="#FFFFFF" fill-opacity="0.3" d="M361.86,292.78c22.87-0.01,41.41,18.52,41.42,41.38c0,0.01,0,0.01,0,0.02v16.9c0,10.56-3.3,20.85-9.44,29.44c-28.46,39.82-74.95,59.54-137.91,59.54c-63,0-109.44-19.74-137.83-59.59c-6.11-8.57-9.39-18.84-9.39-29.36v-16.94c-0.01-22.87,18.52-41.41,41.38-41.42c0.01,0,0.01,0,0.02,0h211.73L361.86,292.78z M255.94,71.94c50.84-0.01,92.06,41.19,92.07,92.03c0.01,50.84-41.19,92.06-92.03,92.07c-0.01,0-0.03,0-0.04,0c-50.84,0-92.05-41.21-92.05-92.05S205.1,71.94,255.94,71.94z"/>
</svg>
